<?xml version="1.0" encoding="UTF-8" standalone="no"?>
<svg width="85" height="26" viewBox="0 0 85 26" xmlns="http://www.w3.org/2000/svg">
  <title>SVG Jar</title>
  <defs>
    <linearGradient x1="87%" y1="90%" x2="5%" y2="5%" id="linearGradient">
      <stop stop-color="#007ee5" offset="0%"></stop>
      <stop stop-color="#5a9bff" offset="60%"></stop>
      <stop stop-color="#8D77FF" offset="100%"></stop>
    </linearGradient>
  </defs>
  <path fill="url(#linearGradient)" d="M5.152 17.536c1.216 0 2.117-.16 2.704-.48.587-.32.88-.832.88-1.536 0-.726-.288-1.302-.864-1.728-.576-.427-1.525-.907-2.848-1.44a43.4 43.4 0 0 1-1.84-.784 6.453 6.453 0 0 1-1.52-.944A4.12 4.12 0 0 1 .64 9.312C.384 8.8.256 8.17.256 7.424c0-1.472.544-2.64 1.632-3.504 1.088-.864 2.57-1.296 4.448-1.296.47 0 .939.026 1.408.08.47.053.907.117 1.312.192.405.074.763.154 1.072.24.31.085.55.16.72.224l-.544 2.56c-.32-.17-.821-.347-1.504-.528-.683-.182-1.504-.272-2.464-.272-.832 0-1.557.165-2.176.496-.619.33-.928.848-.928 1.552 0 .362.07.682.208.96.139.277.352.528.64.752.288.224.645.432 1.072.624.427.192.939.394 1.536.608.79.298 1.493.592 2.112.88A6.611 6.611 0 0 1 10.384 12c.437.384.773.848 1.008 1.392.235.544.352 1.21.352 2 0 1.536-.57 2.698-1.712 3.488-1.141.79-2.768 1.184-4.88 1.184-1.472 0-2.624-.123-3.456-.368-.832-.246-1.397-.432-1.696-.56l.544-2.56c.341.128.885.32 1.632.576.747.256 1.739.384 2.976.384zM27.655 3.04A83.893 83.893 0 0 1 24.727 12a141.057 141.057 0 0 1-3.248 7.68h-2.688A141.057 141.057 0 0 1 15.543 12a83.893 83.893 0 0 1-2.928-8.96h3.2c.256 1.045.56 2.16.912 3.344a96.52 96.52 0 0 0 1.12 3.52 122.04 122.04 0 0 0 1.2 3.376c.405 1.088.79 2.058 1.152 2.912.363-.854.747-1.824 1.152-2.912a122.04 122.04 0 0 0 1.2-3.376 96.52 96.52 0 0 0 1.12-3.52 71.27 71.27 0 0 0 .912-3.344h3.072zm12.2 14.976c-.257.17-.753.39-1.489.656-.736.266-1.594.4-2.576.4a8.268 8.268 0 0 1-2.832-.48 6.147 6.147 0 0 1-2.32-1.488c-.661-.672-1.184-1.51-1.568-2.512-.384-1.003-.576-2.198-.576-3.584 0-1.216.182-2.33.544-3.344a7.422 7.422 0 0 1 1.584-2.624c.694-.736 1.542-1.312 2.544-1.728 1.003-.416 2.134-.624 3.392-.624 1.387 0 2.598.101 3.632.304 1.035.202 1.904.39 2.608.56V18.4c0 2.56-.661 4.416-1.984 5.568-1.322 1.152-3.328 1.728-6.016 1.728-1.045 0-2.032-.086-2.96-.256a16.914 16.914 0 0 1-2.416-.608l.544-2.592c.598.234 1.328.442 2.192.624.864.181 1.766.272 2.704.272 1.77 0 3.046-.352 3.824-1.056.779-.704 1.168-1.824 1.168-3.36v-.704zm-.033-12.352a9.808 9.808 0 0 0-1.2-.24c-.501-.075-1.178-.112-2.032-.112-1.6 0-2.832.522-3.696 1.568-.864 1.045-1.296 2.432-1.296 4.16 0 .96.123 1.781.368 2.464.246.682.576 1.248.992 1.696.416.448.896.778 1.44.992.544.213 1.104.32 1.68.32.79 0 1.515-.112 2.176-.336.662-.224 1.184-.486 1.568-.784V5.664zm11.96-1.624v10.176c0 .832-.065 1.52-.193 2.064s-.32.97-.576 1.28c-.256.31-.576.528-.96.656s-.832.192-1.344.192c-.896 0-1.616-.102-2.16-.304a59.684 59.684 0 0 1-1.136-.432l-.576 2.464c.299.15.822.336 1.568.56.747.224 1.6.336 2.56.336 1.131 0 2.064-.144 2.8-.432.736-.288 1.328-.72 1.776-1.296.448-.576.763-1.286.944-2.128.182-.843.272-1.819.272-2.928V.736L51.781.224V4.04zm12.854 13.496c.704 0 1.328-.016 1.872-.048s.998-.09 1.36-.176v-4.96c-.213-.107-.56-.198-1.04-.272a11.567 11.567 0 0 0-1.744-.112c-.448 0-.922.032-1.424.096-.5.064-.96.197-1.376.4-.416.202-.762.48-1.04.832-.277.352-.416.816-.416 1.392 0 1.066.342 1.808 1.024 2.224.683.416 1.611.624 2.784.624zM64.38 2.624c1.195 0 2.203.154 3.024.464.822.31 1.483.746 1.984 1.312a4.968 4.968 0 0 1 1.072 2.016c.214.778.32 1.637.32 2.576v10.4l-1.072.176c-.458.074-.976.144-1.552.208-.576.064-1.2.122-1.872.176-.672.053-1.338.08-2 .08a10.96 10.96 0 0 1-2.592-.288c-.789-.192-1.472-.496-2.048-.912a4.176 4.176 0 0 1-1.344-1.648c-.32-.683-.48-1.504-.48-2.464 0-.918.187-1.707.56-2.368a4.461 4.461 0 0 1 1.52-1.6c.64-.406 1.387-.704 2.24-.896.854-.192 1.75-.288 2.688-.288.3 0 .608.016.928.048.32.032.624.074.912.128.288.053.54.101.752.144.214.042.363.074.448.096v-.832c0-.49-.053-.976-.16-1.456a3.33 3.33 0 0 0-.576-1.28c-.277-.374-.656-.672-1.136-.896-.48-.224-1.104-.336-1.872-.336-.98 0-1.84.07-2.576.208-.736.138-1.285.282-1.648.432l-.352-2.464c.384-.17 1.024-.336 1.92-.496.896-.16 1.867-.24 2.912-.24zm16.584.064c.256 0 .549.016.88.048.33.032.656.074.976.128.32.053.613.106.88.16.266.053.464.101.592.144L83.78 5.76c-.235-.086-.624-.187-1.168-.304-.544-.118-1.243-.176-2.096-.176-.555 0-1.104.058-1.648.176-.544.117-.902.197-1.072.24V19.68H74.82V3.744c.704-.256 1.578-.496 2.624-.72 1.045-.224 2.218-.336 3.52-.336z"/>
  </svg>
