<svg width="137" height="19" viewBox="0 0 137 19" xmlns="http://www.w3.org/2000/svg">
  <title>SVGJar</title>
  <g fill="none">
    <path d="M22 19h1a1 1 0 1 0 0-2h-1a1 1 0 1 0 0 2" fill="#F97A61"></path>
    <path d="M10 3h13a1 1 0 1 0 0-2H10a1 1 0 1 0 0 2" fill="#298EEA"></path>
    <path d="M14 11h9a1 1 0 1 0 0-2h-9a1 1 0 1 0 0 2" fill="#16CD72"></path>
    <path fill="#298EEA" d="M6.813 19h11.375c.449 0 .812-.447.812-1 0-.553-.363-1-.813-1H6.813C6.364 17 6 17.447 6 18c0 .553.363 1 .813 1"></path>
    <path d="M4 7h14a1 1 0 1 0 0-2H4a1 1 0 1 0 0 2" fill="#FB6E52"></path>
    <path d="M22 7h1a1 1 0 1 0 0-2h-1a1 1 0 1 0 0 2" fill="#379AEA"></path>
    <path fill="#FDC100" d="M.583 3h5.834C6.739 3 7 2.553 7 2c0-.553-.26-1-.583-1H.583C.261 1 0 1.447 0 2c0 .553.26 1 .583 1M8 11h2a1 1 0 1 0 0-2H8a1 1 0 1 0 0 2M10 15h13a1 1 0 1 0 0-2H10a1 1 0 1 0 0 2"></path>
  </g>
  <g fill="none" fill-rule="evenodd">
    <path d="M127.452 1.176c2.496 0 4.408.444 5.736 1.332 1.328.888 1.992 2.268 1.992 4.14 0 1.168-.268 2.116-.804 2.844-.536.728-1.308 1.3-2.316 1.716.336.416.688.892 1.056 1.428.368.536.732 1.096 1.092 1.68.36.584.708 1.192 1.044 1.824.336.632.648 1.252.936 1.86h-4.2l-.924-1.656a39.816 39.816 0 0 0-.96-1.632 44.842 44.842 0 0 0-.972-1.5c-.32-.472-.64-.9-.96-1.284h-1.848V18h-3.744V1.608c.816-.16 1.66-.272 2.532-.336a32.309 32.309 0 0 1 2.34-.096zm.216 3.192c-.272 0-.516.008-.732.024l-.612.048v4.512h1.056c1.408 0 2.416-.176 3.024-.528.608-.352.912-.952.912-1.8 0-.816-.308-1.396-.924-1.74-.616-.344-1.524-.516-2.724-.516zM112.393 12a232.083 232.083 0 0 0-1.305-3.6 82.369 82.369 0 0 0-1.02-2.616c-.32.736-.664 1.608-1.032 2.616a380.622 380.622 0 0 0-1.14 3.168 232.58 232.58 0 0 0-1.152 3.324A763.843 763.843 0 0 0 105.7 18h-4.128c.352-1.056.772-2.256 1.26-3.6a183.19 183.19 0 0 1 1.596-4.224c.576-1.472 1.184-2.96 1.824-4.464.64-1.504 1.288-2.952 1.944-4.344h3.6c.656 1.392 1.304 2.84 1.944 4.344.64 1.504 1.248 2.992 1.824 4.464.576 1.472 1.104 2.88 1.584 4.224.48 1.344.904 2.544 1.272 3.6h-3.984c-.31-.929-.645-1.929-1.007-3H109v-1.5c0-.828.674-1.5 1.5-1.5h1.893zm-14.741.408c0 .816-.092 1.584-.276 2.304a4.633 4.633 0 0 1-.96 1.884c-.456.536-1.072.96-1.848 1.272-.776.312-1.756.468-2.94.468-1.088 0-2.024-.132-2.808-.396-.784-.264-1.432-.572-1.944-.924l1.248-2.904c.464.272.96.512 1.488.72a4.674 4.674 0 0 0 1.728.312c.912 0 1.568-.224 1.968-.672.4-.448.6-1.2.6-2.256V1.368h3.744v11.04zM77.82 4.248c-1.744 0-3.004.484-3.78 1.452-.776.968-1.164 2.292-1.164 3.972 0 .816.096 1.556.288 2.22.192.664.48 1.236.864 1.716s.864.852 1.44 1.116c.576.264 1.248.396 2.016.396.416 0 .772-.008 1.068-.024.296-.016.556-.048.78-.096V9.216h3.744v8.232c-.448.176-1.168.364-2.16.564-.992.2-2.216.3-3.672.3-1.248 0-2.38-.192-3.396-.576a7.1 7.1 0 0 1-2.604-1.68c-.72-.736-1.276-1.64-1.668-2.712-.392-1.072-.588-2.296-.588-3.672 0-1.392.216-2.624.648-3.696.432-1.072 1.024-1.98 1.776-2.724a7.488 7.488 0 0 1 2.652-1.692 9.121 9.121 0 0 1 3.252-.576 13.151 13.151 0 0 1 3.756.516 7.574 7.574 0 0 1 1.764.756l-1.08 3a9.76 9.76 0 0 0-1.764-.708c-.664-.2-1.388-.3-2.172-.3zM55.924 18a125.075 125.075 0 0 1-1.944-4.344 164.426 164.426 0 0 1-1.824-4.464 183.193 183.193 0 0 1-1.596-4.224 145.395 145.395 0 0 1-1.26-3.6h4.128c.32.96.668 1.996 1.044 3.108s.76 2.22 1.152 3.324c.392 1.104.772 2.16 1.14 3.168.368 1.008.712 1.88 1.032 2.616a82.37 82.37 0 0 0 1.02-2.616 232.58 232.58 0 0 0 2.304-6.492c.376-1.112.724-2.148 1.044-3.108h3.984a501.44 501.44 0 0 1-1.272 3.6 150.848 150.848 0 0 1-1.584 4.224 164.426 164.426 0 0 1-1.824 4.464A125.075 125.075 0 0 1 59.524 18h-3.6zm-16.136-2.856c.528 0 .964-.044 1.308-.132.344-.088.62-.208.828-.36.208-.152.352-.332.432-.54.08-.208.12-.44.12-.696 0-.544-.256-.996-.768-1.356-.512-.36-1.392-.748-2.64-1.164a19.906 19.906 0 0 1-1.632-.66 6.015 6.015 0 0 1-1.464-.936 4.477 4.477 0 0 1-1.056-1.368c-.272-.536-.408-1.188-.408-1.956s.144-1.46.432-2.076a4.432 4.432 0 0 1 1.224-1.572c.528-.432 1.168-.764 1.92-.996.752-.232 1.6-.348 2.544-.348 1.12 0 2.088.12 2.904.36.816.24 1.488.504 2.016.792l-1.08 2.952c-.464-.24-.98-.452-1.548-.636-.568-.184-1.252-.276-2.052-.276-.896 0-1.54.124-1.932.372-.392.248-.588.628-.588 1.14 0 .304.072.56.216.768a2.1 2.1 0 0 0 .612.564c.264.168.568.32.912.456.344.136.724.276 1.14.42.864.32 1.616.636 2.256.948.64.312 1.172.676 1.596 1.092.424.416.74.904.948 1.464.208.56.312 1.24.312 2.04 0 1.552-.544 2.756-1.632 3.612-1.088.856-2.728 1.284-4.92 1.284-.736 0-1.4-.044-1.992-.132a12.856 12.856 0 0 1-1.572-.324 9.017 9.017 0 0 1-1.176-.408 8.93 8.93 0 0 1-.828-.408l1.056-2.976c.496.272 1.108.516 1.836.732.728.216 1.62.324 2.676.324z" fill="#333"></path>
  </g>
</svg>
